<?xml version="1.0" encoding="UTF-8" standalone="no"?>
<!-- Created with Inkscape (http://www.inkscape.org/) -->

<svg
   width="105.70341mm"
   height="22.01914mm"
   viewBox="0 0 105.7034 22.019141"
   version="1.1"
   id="svg5"
   xml:space="preserve"
   inkscape:version="1.2 (dc2aedaf03, 2022-05-15)"
   sodipodi:docname="ocean_logo.svg"
   xmlns:inkscape="http://www.inkscape.org/namespaces/inkscape"
   xmlns:sodipodi="http://sodipodi.sourceforge.net/DTD/sodipodi-0.dtd"
   xmlns="http://www.w3.org/2000/svg"
   xmlns:svg="http://www.w3.org/2000/svg"><sodipodi:namedview
     id="namedview7"
     pagecolor="#ffffff"
     bordercolor="#000000"
     borderopacity="0.25"
     inkscape:showpageshadow="2"
     inkscape:pageopacity="0.0"
     inkscape:pagecheckerboard="false"
     inkscape:deskcolor="#d1d1d1"
     inkscape:document-units="mm"
     showgrid="false"
     inkscape:zoom="2.0854439"
     inkscape:cx="304.73129"
     inkscape:cy="18.22154"
     inkscape:window-width="1920"
     inkscape:window-height="1001"
     inkscape:window-x="-9"
     inkscape:window-y="-9"
     inkscape:window-maximized="1"
     inkscape:current-layer="layer1" /><defs
     id="defs2"><inkscape:path-effect
       effect="fill_between_many"
       method="originald"
       linkedpaths="#path238,0,1"
       id="path-effect2074"
       is_visible="true"
       lpeversion="0"
       join="true"
       close="true"
       autoreverse="true" /><inkscape:path-effect
       effect="fill_between_many"
       method="originald"
       linkedpaths="#path2076,0,1"
       id="path-effect2078"
       is_visible="true"
       lpeversion="0"
       join="true"
       close="true"
       autoreverse="true" /><inkscape:path-effect
       effect="fill_between_many"
       method="originald"
       linkedpaths="#path2080,0,1"
       id="path-effect2082"
       is_visible="true"
       lpeversion="0"
       join="true"
       close="true"
       autoreverse="true" /></defs><g
     inkscape:groupmode="layer"
     id="layer2"
     inkscape:label="Layer 2"
     transform="translate(-1.8865447,-3.3265249)" /><g
     inkscape:label="Layer 1"
     inkscape:groupmode="layer"
     id="layer1"
     transform="translate(-1.8865447,-3.3265249)"><path
       inkscape:original-d="M 0,0"
       inkscape:path-effect="#path-effect2082"
       d="M 0,0 Z"
       id="path2084"
       class="UnoptimicedTransforms"
       transform="translate(47.471713,148.5)" /><path
       inkscape:original-d="M 0,0"
       inkscape:path-effect="#path-effect2078"
       d="M -94.256455,-297.1071 Z"
       id="path2080"
       class="UnoptimicedTransforms"
       style="fill:#0000ff"
       transform="translate(47.471713,148.5)" /><path
       inkscape:original-d="M 0,0"
       inkscape:path-effect="#path-effect2074"
       d="M 0,0"
       id="path2076"
       class="UnoptimicedTransforms"
       transform="translate(-46.784742,-148.6071)" /><path
       id="path244"
       style="fill:#0d5ebc;fill-opacity:1;stroke:#000000;stroke-width:0.17076;stroke-dasharray:none;stroke-opacity:1"
       d="m 12.018751,12.208522 c 2.477847,-4.1671917 7.854873,-3.8619599 10.699647,-0.781637 1.262426,1.366954 1.724726,2.81431 1.745828,4.240119 0.01352,0.913438 -0.104766,1.247704 -0.471582,2.133727 -1.038932,2.50948 -5.240095,2.436681 -8.608917,1.72924 -2.684224,-0.444274 -3.717427,-1.547487 -6.2031162,-1.409505 -0.2766739,0.01757 -0.551889,0.04413 -0.8161297,0.07563 -1.1206534,0.133574 -2.2047293,0.999037 -2.2047293,0.999037 0.9257801,-0.585027 1.9347973,-1.768584 2.8022494,-2.173204 1.1017038,-0.513888 2.2344578,-0.808925 3.5966218,-0.69879 2.3512,0.22596 4.119221,1.180167 6.362898,0.650861 3.601645,-1.138534 2.433581,-4.859906 0.379002,-6.234668 -1.219502,-0.8020586 -4.369513,-1.5992138 -7.281772,1.469191 z"
       sodipodi:nodetypes="csssccscscccc" /><text
       xml:space="preserve"
       style="font-style:normal;font-variant:normal;font-weight:normal;font-stretch:normal;font-size:3.175px;font-family:'Lucida Bright';-inkscape-font-specification:'Lucida Bright, Normal';font-variant-ligatures:normal;font-variant-caps:normal;font-variant-numeric:normal;font-variant-east-asian:normal;white-space:pre;inline-size:15.5599;display:inline;fill:#000000;fill-opacity:1;stroke-width:0.264583"
       x="97.523407"
       y="55.727661"
       id="text378"
       transform="matrix(6.0396616,0,0,6.0396616,-558.35445,-315.0608)"><tspan
         x="97.523407"
         y="55.727661"
         id="tspan1870">OCEAN</tspan></text><path
       style="opacity:1;fill:#a4de87;fill-opacity:1;fill-rule:nonzero;stroke:none;stroke-width:0.598888;stroke-linejoin:bevel;stroke-dasharray:none;stroke-opacity:1"
       d=""
       id="path9357"
       transform="scale(0.26458333)" /><path
       style="fill:#98e3ff;fill-opacity:1;stroke:#000000;stroke-width:0.17076;stroke-dasharray:none;stroke-opacity:1"
       d="m 16.602653,4.5550347 c 1.718177,-0.043299 3.18312,1.01889 4.645724,2.1007441 2.267309,1.6094437 5.321354,2.9440824 7.862761,3.2092903 l 0.01805,0.7357859 C 23.231392,10.890856 21.302241,7.6403895 17.00174,7.6033081 13.00839,7.5688754 10.171414,11.228429 7.2028397,15.222164 L 3.436979,15.280154 C 4.6115456,13.384974 6.5436378,11.191357 8.5641666,9.2024329 11.044074,6.7613164 13.757975,4.6861348 16.602645,4.5550347 Z"
       id="path240"
       sodipodi:nodetypes="ccccsccscc" /><path
       style="fill:#06458e;fill-opacity:1;stroke:#000000;stroke-width:0.156446;stroke-dasharray:none;stroke-opacity:1"
       d="m 4.5073415,20.962364 c 3.7249772,0.977404 5.9649625,1.576876 8.9739115,2.094113 3.293523,0.660471 6.57419,0.633716 9.633521,-0.09484 2.236692,-0.543349 4.293538,-1.431813 5.981748,-2.550418 -3.996336,1.876318 -8.765405,2.19098 -13.176676,1.928717 -2.054238,-0.122129 -3.871952,-0.342614 -5.660243,-0.590553 -1.8706002,-0.25935 -3.7090083,-0.548739 -5.7522615,-0.787019 z"
       id="path318"
       sodipodi:nodetypes="ccccssc" /></g></svg>
