<?xml version="1.0" encoding="UTF-8" standalone="no"?>
<!-- Created with Inkscape (http://www.inkscape.org/) -->

<svg
   width="104.65268mm"
   height="23.503216mm"
   viewBox="0 0 104.65268 23.503216"
   version="1.1"
   id="svg5"
   xml:space="preserve"
   inkscape:version="1.2 (dc2aedaf03, 2022-05-15)"
   sodipodi:docname="ocean_logo.svg"
   xmlns:inkscape="http://www.inkscape.org/namespaces/inkscape"
   xmlns:sodipodi="http://sodipodi.sourceforge.net/DTD/sodipodi-0.dtd"
   xmlns="http://www.w3.org/2000/svg"
   xmlns:svg="http://www.w3.org/2000/svg"><sodipodi:namedview
     id="namedview7"
     pagecolor="#ffffff"
     bordercolor="#000000"
     borderopacity="0.25"
     inkscape:showpageshadow="2"
     inkscape:pageopacity="0.0"
     inkscape:pagecheckerboard="false"
     inkscape:deskcolor="#d1d1d1"
     inkscape:document-units="mm"
     showgrid="false"
     inkscape:zoom="2.0854439"
     inkscape:cx="315.99987"
     inkscape:cy="71.927133"
     inkscape:window-width="2400"
     inkscape:window-height="1271"
     inkscape:window-x="2391"
     inkscape:window-y="-9"
     inkscape:window-maximized="1"
     inkscape:current-layer="layer1" /><defs
     id="defs2"><inkscape:path-effect
       effect="fill_between_many"
       method="originald"
       linkedpaths="#path238,0,1"
       id="path-effect2074"
       is_visible="true"
       lpeversion="0"
       join="true"
       close="true"
       autoreverse="true" /><inkscape:path-effect
       effect="fill_between_many"
       method="originald"
       linkedpaths="#path2076,0,1"
       id="path-effect2078"
       is_visible="true"
       lpeversion="0"
       join="true"
       close="true"
       autoreverse="true" /><inkscape:path-effect
       effect="fill_between_many"
       method="originald"
       linkedpaths="#path2080,0,1"
       id="path-effect2082"
       is_visible="true"
       lpeversion="0"
       join="true"
       close="true"
       autoreverse="true" /></defs><g
     inkscape:groupmode="layer"
     id="layer2"
     inkscape:label="Layer 2"
     transform="translate(-1.683954,-2.7652539)" /><g
     inkscape:label="Layer 1"
     inkscape:groupmode="layer"
     id="layer1"
     transform="translate(-1.683954,-2.7652539)"><path
       inkscape:original-d="M 0,0"
       inkscape:path-effect="#path-effect2082"
       d="M 0,0 Z"
       id="path2084"
       class="UnoptimicedTransforms"
       transform="translate(47.471713,148.5)" /><path
       inkscape:original-d="M 0,0"
       inkscape:path-effect="#path-effect2078"
       d="M -94.256455,-297.1071 Z"
       id="path2080"
       class="UnoptimicedTransforms"
       style="fill:#0000ff"
       transform="translate(47.471713,148.5)" /><path
       inkscape:original-d="M 0,0"
       inkscape:path-effect="#path-effect2074"
       d="M 0,0"
       id="path2076"
       class="UnoptimicedTransforms"
       transform="translate(-46.784742,-148.6071)" /><path
       style="fill:#33d5ff;fill-opacity:1;stroke:#000000;stroke-width:0.19052;stroke-dasharray:none;stroke-opacity:1"
       d="m 16.517623,2.8605139 c 2.392764,0.015127 3.836916,1.3588159 5.183304,2.3438316 2.52967,1.7956803 5.937114,3.2847566 8.7726,3.5806531 l 0.02014,0.8209268 C 23.913406,9.9294849 21.761024,6.3028903 16.962891,6.2615181 12.50745,6.223101 9.342194,10.30612 6.030111,14.761989 l -4.2016265,0.0647 C 3.7532367,10.26502 12.768642,2.8605139 16.517614,2.8605139 Z"
       id="path240"
       sodipodi:nodetypes="ccccsccsc" /><path
       id="path244"
       style="fill:#135cb2;fill-opacity:1;stroke:#000000;stroke-width:0.19052;stroke-dasharray:none;stroke-opacity:1"
       d="m 11.320131,11.693195 c 2.764571,-4.6493979 8.763799,-4.3088462 11.937756,-0.872084 1.408508,1.525131 1.924303,3.139968 1.947847,4.730764 0.01508,1.019137 -0.116891,2.020064 -0.526152,3.008613 -1.679886,4.057671 -4.769443,3.869629 -10.81645,3.896944 -1.210986,0.0055 -3.9869685,-0.02155 -3.9869685,-0.02155 0,0 0.3457815,-0.840835 1.1678655,-0.981143 4.124413,-0.703929 9.881159,-0.936867 10.361983,-5.379081 0.301456,-2.785078 -0.185241,-4.853425 -1.961499,-6.021661 -1.360616,-0.8948689 -4.875131,-1.7842669 -8.124382,1.639199 z"
       sodipodi:nodetypes="csssscssscc" /><path
       style="fill:#135cb2;fill-opacity:1;stroke:#000000;stroke-width:0.19052;stroke-dasharray:none;stroke-opacity:1"
       d="m 2.1312264,22.043891 c 4.9563256,2.462783 10.2212316,4.380894 15.3501156,4.102363 4.622176,0.02911 9.098446,-1.615214 12.352811,-4.1597 -4.480209,2.482141 -9.826713,3.257252 -14.772097,2.910305 C 10.350129,24.566291 6.0286053,23.198721 2.1312264,22.043891 Z"
       id="path318"
       sodipodi:nodetypes="cccsc" /><text
       xml:space="preserve"
       style="font-style:normal;font-variant:normal;font-weight:normal;font-stretch:normal;font-size:3.175px;font-family:'Lucida Bright';-inkscape-font-specification:'Lucida Bright, Normal';font-variant-ligatures:normal;font-variant-caps:normal;font-variant-numeric:normal;font-variant-east-asian:normal;white-space:pre;inline-size:15.5599;display:inline;fill:#000000;fill-opacity:1;stroke-width:0.264583"
       x="97.523407"
       y="55.727661"
       id="text378"
       transform="matrix(6.7385406,0,0,6.7385406,-625.9931,-351.81851)"><tspan
         x="97.523407"
         y="55.727661"
         id="tspan263">OCEAN</tspan></text><path
       style="opacity:1;fill:#a4de87;fill-opacity:1;fill-rule:nonzero;stroke:none;stroke-width:0.598888;stroke-linejoin:bevel;stroke-dasharray:none;stroke-opacity:1"
       d=""
       id="path9357"
       transform="scale(0.26458333)" /></g></svg>
