<?xml version="1.0" encoding="UTF-8" standalone="no"?>
<!-- Created with Inkscape (http://www.inkscape.org/) -->

<svg
   width="210mm"
   height="297mm"
   viewBox="0 0 210 297"
   version="1.1"
   id="svg5"
   xml:space="preserve"
   inkscape:version="1.2 (dc2aedaf03, 2022-05-15)"
   sodipodi:docname="ocean_logo.svg"
   xmlns:inkscape="http://www.inkscape.org/namespaces/inkscape"
   xmlns:sodipodi="http://sodipodi.sourceforge.net/DTD/sodipodi-0.dtd"
   xmlns="http://www.w3.org/2000/svg"
   xmlns:svg="http://www.w3.org/2000/svg"><sodipodi:namedview
     id="namedview7"
     pagecolor="#ffffff"
     bordercolor="#000000"
     borderopacity="0.25"
     inkscape:showpageshadow="2"
     inkscape:pageopacity="0.0"
     inkscape:pagecheckerboard="0"
     inkscape:deskcolor="#d1d1d1"
     inkscape:document-units="mm"
     showgrid="false"
     inkscape:zoom="1.4746315"
     inkscape:cx="467.91351"
     inkscape:cy="116.63931"
     inkscape:window-width="2400"
     inkscape:window-height="1271"
     inkscape:window-x="2391"
     inkscape:window-y="-9"
     inkscape:window-maximized="1"
     inkscape:current-layer="layer1" /><defs
     id="defs2"><inkscape:path-effect
       effect="fill_between_many"
       method="originald"
       linkedpaths="#path238,0,1|"
       id="path-effect2074" /><inkscape:path-effect
       effect="fill_between_many"
       method="originald"
       linkedpaths="#path2076,0,1|"
       id="path-effect2078" /><inkscape:path-effect
       effect="fill_between_many"
       method="originald"
       linkedpaths="#path2080,0,1|"
       id="path-effect2082" /></defs><g
     inkscape:groupmode="layer"
     id="layer2"
     inkscape:label="Layer 2" /><g
     inkscape:label="Layer 1"
     inkscape:groupmode="layer"
     id="layer1"><path
       inkscape:original-d="M 0,0"
       inkscape:path-effect="#path-effect2082"
       d="M 0,0 Z"
       id="path2084"
       class="UnoptimicedTransforms"
       transform="translate(47.471713,148.5)" /><path
       inkscape:original-d="M 0,0"
       inkscape:path-effect="#path-effect2078"
       d="M -94.256455,-297.1071 Z"
       id="path2080"
       class="UnoptimicedTransforms"
       style="fill:#0000ff"
       transform="translate(47.471713,148.5)" /><path
       inkscape:original-d="M 0,0"
       inkscape:path-effect="#path-effect2074"
       d="M 0,0"
       id="path2076"
       class="UnoptimicedTransforms"
       transform="translate(-46.784742,-148.6071)" /><path
       style="fill:#33d5ff;fill-opacity:1;stroke:#000000;stroke-width:0.3;stroke-dasharray:none;stroke-opacity:1"
       d="m 25.041566,2.9152537 c 3.767731,0.02382 6.041742,2.139639 8.161812,3.690679 3.983306,2.8275408 9.348787,5.1722923 13.813642,5.6382213 l 0.03172,1.29266 C 36.687224,14.046302 33.298009,8.3357396 25.742701,8.2705936 18.727008,8.2101006 13.742886,14.639364 8.5275645,21.655732 L 1.9115369,21.757606 C 4.9423189,14.574647 19.138291,2.9152537 25.041553,2.9152537 Z"
       id="path240"
       sodipodi:nodetypes="ccccsccsc" /><path
       id="path244"
       style="fill:#135cb2;fill-opacity:1;stroke:#000000;stroke-width:0.3;stroke-dasharray:none;stroke-opacity:1"
       d="m 16.857414,16.823501 c 4.35319,-7.3211036 13.799784,-6.784859 18.797608,-1.373214 2.217885,2.401525 3.030074,4.944304 3.067148,7.449226 0.02375,1.604769 -0.184061,3.180864 -0.828498,4.737467 -2.645207,6.389351 -7.510132,6.093253 -17.03196,6.136264 -1.90686,0.0086 -6.278019,-0.03394 -6.278019,-0.03394 0,0 0.544479,-1.324007 1.838961,-1.544941 6.494445,-1.108431 15.559218,-1.475223 16.31634,-8.470089 0.474683,-4.38548 -0.291686,-7.642372 -3.088644,-9.481917 -2.142473,-1.409092 -7.676551,-2.809569 -12.792936,2.58114 z"
       sodipodi:nodetypes="csssscssscc" /><path
       style="fill:#135cb2;fill-opacity:1;stroke:#000000;stroke-width:0.3;stroke-dasharray:none;stroke-opacity:1"
       d="m 2.3882448,33.122069 c 7.8044032,3.877983 16.0947072,6.898308 24.1708272,6.459723 7.278239,0.04584 14.32673,-2.543372 19.451167,-6.550008 C 38.955546,36.940249 30.536754,38.160766 22.74958,37.614452 15.330015,37.093928 8.5251936,34.940504 2.3882448,33.122069 Z"
       id="path318"
       sodipodi:nodetypes="cccsc" /><text
       xml:space="preserve"
       style="font-style:normal;font-variant:normal;font-weight:normal;font-stretch:normal;font-size:3.175px;font-family:'Lucida Bright';-inkscape-font-specification:'Lucida Bright, Normal';font-variant-ligatures:normal;font-variant-caps:normal;font-variant-numeric:normal;font-variant-east-asian:normal;white-space:pre;inline-size:15.5599;display:inline;fill:#000000;fill-opacity:1;stroke-width:0.264583"
       x="97.523407"
       y="55.727661"
       id="text378"
       transform="matrix(10.610741,0,0,10.610741,-986.67823,-555.5747)"><tspan
         x="97.523407"
         y="55.727661"
         id="tspan489">OCEAN</tspan></text><path
       style="opacity:1;fill:#a4de87;fill-opacity:1;fill-rule:nonzero;stroke:none;stroke-width:0.598888;stroke-linejoin:bevel;stroke-dasharray:none;stroke-opacity:1"
       d=""
       id="path9357"
       transform="scale(0.26458333)" /></g></svg>
